solid rod
  facet normal 0 0 -1
    outer loop
      vertex -1 -1 -20
      vertex  1  1 -20
      vertex  1 -1 -20
    endloop
  endfacet
  facet normal 0 0 -1
    outer loop
      vertex -1 -1 -20
      vertex -1  1 -20
      vertex  1  1 -20
    endloop
  endfacet
  facet normal 0 0 1
    outer loop
      vertex -1 -1 20
      vertex  1 -1 20
      vertex  1  1 20
    endloop
  endfacet
  facet normal 0 0 1
    outer loop
      vertex -1 -1 20
      vertex  1  1 20
      vertex -1  1 20
    endloop
  endfacet
  facet normal 0 -1 0
    outer loop
      vertex -1 -1 -20
      vertex  1 -1 -20
      vertex  1 -1  20
    endloop
  endfacet
  facet normal 0 -1 0
    outer loop
      vertex -1 -1 -20
      vertex  1 -1  20
      vertex -1 -1  20
    endloop
  endfacet
  facet normal 0 1 0
    outer loop
      vertex -1 1 -20
      vertex  1 1  20
      vertex  1 1 -20
    endloop
  endfacet
  facet normal 0 1 0
    outer loop
      vertex -1 1 -20
      vertex -1 1  20
      vertex  1 1  20
    endloop
  endfacet
  facet normal -1 0 0
    outer loop
      vertex -1 -1 -20
      vertex -1 -1  20
      vertex -1  1  20
    endloop
  endfacet
  facet normal -1 0 0
    outer loop
      vertex -1 -1 -20
      vertex -1  1  20
      vertex -1  1 -20
    endloop
  endfacet
  facet normal 1 0 0
    outer loop
      vertex 1 -1 -20
      vertex 1  1 -20
      vertex 1  1  20
    endloop
  endfacet
  facet normal 1 0 0
    outer loop
      vertex 1 -1 -20
      vertex 1  1  20
      vertex 1 -1  20
    endloop
  endfacet
endsolid rod